<svg xmlns="http://www.w3.org/2000/svg" width="142.598" height="45" viewBox="0 0 142.598 45">
  <g id="Logo" transform="translate(-70 -37)">
    <g id="Group_12856" data-name="Group 12856" transform="translate(133.332 41.918)" style="isolation: isolate">
      <path id="Path_49888" data-name="Path 49888" d="M20.3,28h-4.84L5.879,14V28H1.668V7.492h4.84L16.092,21.52V7.492H20.3Z" fill="#fff"/>
      <path id="Path_49889" data-name="Path 49889" d="M42.669,7.492V18.771A11.511,11.511,0,0,1,41.6,23.939a7.673,7.673,0,0,1-3.076,3.316,9.469,9.469,0,0,1-4.806,1.155,9.473,9.473,0,0,1-4.8-1.155,7.648,7.648,0,0,1-3.083-3.316,11.5,11.5,0,0,1-1.073-5.168V7.492H28.97v10.76a10.235,10.235,0,0,0,.54,3.582,4.438,4.438,0,0,0,8.408,0,10.258,10.258,0,0,0,.54-3.582V7.492Z" fill="#fff"/>
      <path id="Path_49890" data-name="Path 49890" d="M55.984,28H51.773V11.17H45.73V7.492H62.041V11.17H55.984Z" fill="#fff"/>
      <path id="Path_49891" data-name="Path 49891" d="M64.145,25.785l2-3.213a12.376,12.376,0,0,0,1.826,1.251,7.641,7.641,0,0,0,1.742.711,6.9,6.9,0,0,0,1.764.226,5.125,5.125,0,0,0,1.845-.3,2.705,2.705,0,0,0,1.211-.861,2.074,2.074,0,0,0,.43-1.3,2.044,2.044,0,0,0-.547-1.449,4.978,4.978,0,0,0-1.428-1.033q-.882-.444-1.908-.854-1-.411-2-.9a9.742,9.742,0,0,1-1.845-1.155,5.155,5.155,0,0,1-1.354-1.634,4.932,4.932,0,0,1-.514-2.344,5.332,5.332,0,0,1,.91-3.118,5.884,5.884,0,0,1,2.495-2.023,8.77,8.77,0,0,1,3.623-.711,12.484,12.484,0,0,1,2.988.383,14.671,14.671,0,0,1,3.1,1.162l-1.655,3.4a9.158,9.158,0,0,0-2.091-.929,7.24,7.24,0,0,0-2.106-.342,4.054,4.054,0,0,0-1.551.273,2.425,2.425,0,0,0-1.033.759,1.832,1.832,0,0,0-.369,1.142A1.9,1.9,0,0,0,70.2,14.28a5.044,5.044,0,0,0,1.389,1.005q.852.438,1.838.875,1.012.438,2.045.957a10.128,10.128,0,0,1,1.886,1.224,5.621,5.621,0,0,1,1.381,1.681,4.9,4.9,0,0,1,.526,2.345,5.361,5.361,0,0,1-.957,3.165,6.283,6.283,0,0,1-2.666,2.119,9.723,9.723,0,0,1-3.979.759,11.868,11.868,0,0,1-3.978-.67A12.368,12.368,0,0,1,64.145,25.785Z" fill="#fff"/>
    </g>
    <g id="Group_11049" data-name="Group 11049" transform="translate(-439.466 -412.382)">
      <path id="Path_11794" data-name="Path 11794" d="M543.975,458.225c7.932-2.817,13.97-3.4,15.245-1.059,1.915,3.519-7.616,12.3-21.289,19.622s-26.308,10.4-28.222,6.879c-1.2-2.2,2.094-6.476,8.083-11.159-4.145,3.52-6.307,6.635-5.384,8.332.668,1.228,2.849,1.523,5.99,1.023a10.423,10.423,0,0,1-.2-8.41c2.967-7.436,14.328-11,18.875-22.713l.491-1.358.509,1.423c2.758,7.049,7.985,11.139,12.343,14.911,3.687-3.27,5.557-6.128,4.687-7.727-.989-1.818-5.3-1.592-11.125.236Z" transform="translate(0 0)" fill="#f82f77" fill-rule="evenodd"/>
      <path id="Path_11795" data-name="Path 11795" d="M634.861,656.1h20.371c-7.331-.99-8.945-5.727-9.727-12.014,7.8,12.719,23.131,2.223,18.727-8.9a16,16,0,0,0-3.887-5.39,87.43,87.43,0,0,1-14.815,9.871,85.447,85.447,0,0,1-17.159,7.185c4.224,4.148,11.563,4.83,16.218-2.763-.782,6.287-2.4,11.025-9.727,12.015Z" transform="translate(-106.151 -161.722)" fill="#fff" fill-rule="evenodd"/>
    </g>
  </g>
</svg>
